<mxfile host="app.diagrams.net" modified="2022-05-05T05:12:27.768Z" agent="5.0 (Macintosh; Intel Mac OS X 10_15_7) AppleWebKit/537.36 (KHTML, like Gecko) Chrome/100.0.4896.127 Safari/537.36" etag="st_pd3WBgj1Nl-Ic9tlH" version="17.5.0" type="github">
  <diagram id="RYZyazkwS39Y2AsS4vCi" name="Page-1">
    <mxGraphModel dx="1977" dy="1023" grid="1" gridSize="10" guides="1" tooltips="1" connect="1" arrows="1" fold="1" page="1" pageScale="1" pageWidth="850" pageHeight="1100" math="0" shadow="0">
      <root>
        <mxCell id="0" />
        <mxCell id="1" parent="0" />
        <mxCell id="Yy8LMtG_oUJmks3BbUAU-1" value="Aithentication: OTP, finger print and face authentication/iris" style="text;html=1;strokeColor=none;fillColor=none;align=center;verticalAlign=middle;whiteSpace=wrap;rounded=0;" parent="1" vertex="1">
          <mxGeometry x="740" y="870" width="110" height="60" as="geometry" />
        </mxCell>
        <mxCell id="YPgm55xfa66bHZHVbcCX-1" value="&lt;font style=&quot;font-size: 14px&quot;&gt;The resident&lt;/font&gt;" style="shape=umlActor;verticalLabelPosition=bottom;labelBackgroundColor=#ffffff;verticalAlign=top;html=1;outlineConnect=0;fillColor=#FFE599;strokeColor=#000000;" vertex="1" parent="1">
          <mxGeometry x="810" y="20" width="40" height="70" as="geometry" />
        </mxCell>
        <mxCell id="YPgm55xfa66bHZHVbcCX-2" value="" style="endArrow=none;html=1;" edge="1" parent="1">
          <mxGeometry width="50" height="50" relative="1" as="geometry">
            <mxPoint x="830" y="150" as="sourcePoint" />
            <mxPoint x="830" y="110" as="targetPoint" />
            <Array as="points">
              <mxPoint x="830" y="130" />
            </Array>
          </mxGeometry>
        </mxCell>
        <mxCell id="YPgm55xfa66bHZHVbcCX-3" value="" style="endArrow=none;html=1;exitX=0.164;exitY=1.333;exitDx=0;exitDy=0;exitPerimeter=0;" edge="1" parent="1" source="YPgm55xfa66bHZHVbcCX-55">
          <mxGeometry width="50" height="50" relative="1" as="geometry">
            <mxPoint x="140" y="154.9999999999999" as="sourcePoint" />
            <mxPoint x="1390" y="155" as="targetPoint" />
          </mxGeometry>
        </mxCell>
        <mxCell id="YPgm55xfa66bHZHVbcCX-4" value="" style="endArrow=classic;html=1;entryX=0.5;entryY=0;entryDx=0;entryDy=0;" edge="1" parent="1">
          <mxGeometry width="50" height="50" relative="1" as="geometry">
            <mxPoint x="370" y="155" as="sourcePoint" />
            <mxPoint x="370" y="215" as="targetPoint" />
            <Array as="points">
              <mxPoint x="370" y="195" />
            </Array>
          </mxGeometry>
        </mxCell>
        <mxCell id="YPgm55xfa66bHZHVbcCX-5" value="" style="endArrow=classic;html=1;" edge="1" parent="1" target="YPgm55xfa66bHZHVbcCX-6">
          <mxGeometry width="50" height="50" relative="1" as="geometry">
            <mxPoint x="680" y="155" as="sourcePoint" />
            <mxPoint x="780" y="205" as="targetPoint" />
            <Array as="points" />
          </mxGeometry>
        </mxCell>
        <mxCell id="YPgm55xfa66bHZHVbcCX-6" value="&lt;span&gt;&lt;font style=&quot;font-size: 18px&quot;&gt;&lt;b&gt;UIN services&lt;/b&gt;&lt;/font&gt;&lt;/span&gt;" style="rounded=0;whiteSpace=wrap;html=1;fillColor=#FFFF00;" vertex="1" parent="1">
          <mxGeometry x="620" y="215" width="120" height="60" as="geometry" />
        </mxCell>
        <mxCell id="YPgm55xfa66bHZHVbcCX-7" value="" style="edgeStyle=orthogonalEdgeStyle;rounded=0;orthogonalLoop=1;jettySize=auto;html=1;entryX=0;entryY=0.5;entryDx=0;entryDy=0;" edge="1" parent="1" source="YPgm55xfa66bHZHVbcCX-8" target="YPgm55xfa66bHZHVbcCX-9">
          <mxGeometry relative="1" as="geometry">
            <mxPoint x="230" y="355" as="targetPoint" />
            <Array as="points">
              <mxPoint x="230" y="245" />
              <mxPoint x="230" y="340" />
            </Array>
          </mxGeometry>
        </mxCell>
        <mxCell id="YPgm55xfa66bHZHVbcCX-8" value="&lt;span&gt;&lt;font style=&quot;font-size: 18px&quot;&gt;&lt;b&gt;Get information&lt;/b&gt;&lt;/font&gt;&lt;/span&gt;" style="rounded=0;whiteSpace=wrap;html=1;fillColor=#CC00CC;" vertex="1" parent="1">
          <mxGeometry x="310" y="215" width="120" height="60" as="geometry" />
        </mxCell>
        <mxCell id="YPgm55xfa66bHZHVbcCX-9" value="&lt;font style=&quot;font-size: 14px&quot;&gt;Search for registration center on the basis of location hierarchy&lt;/font&gt;" style="rounded=0;whiteSpace=wrap;html=1;fillColor=#FF99FF;" vertex="1" parent="1">
          <mxGeometry x="310" y="305" width="120" height="70" as="geometry" />
        </mxCell>
        <mxCell id="YPgm55xfa66bHZHVbcCX-10" value="&lt;span&gt;&lt;font style=&quot;font-size: 14px&quot;&gt;Search the nearest registration center&lt;/font&gt;&lt;/span&gt;" style="rounded=0;whiteSpace=wrap;html=1;fillColor=#FF99FF;" vertex="1" parent="1">
          <mxGeometry x="310" y="465" width="120" height="70" as="geometry" />
        </mxCell>
        <mxCell id="YPgm55xfa66bHZHVbcCX-11" value="&lt;span&gt;&lt;font style=&quot;font-size: 14px&quot;&gt;Download a card&lt;/font&gt;&lt;/span&gt;" style="rounded=0;whiteSpace=wrap;html=1;fillColor=#FFFF99;" vertex="1" parent="1">
          <mxGeometry x="560" y="630" width="120" height="70" as="geometry" />
        </mxCell>
        <mxCell id="YPgm55xfa66bHZHVbcCX-12" value="&lt;font style=&quot;font-size: 14px&quot;&gt;Search for registration center on the basis of free text&lt;/font&gt;" style="rounded=0;whiteSpace=wrap;html=1;fillColor=#FF99FF;" vertex="1" parent="1">
          <mxGeometry x="310" y="385" width="120" height="70" as="geometry" />
        </mxCell>
        <mxCell id="YPgm55xfa66bHZHVbcCX-13" value="&lt;span&gt;&lt;font style=&quot;font-size: 14px&quot;&gt;Get list of acceptable document type&lt;/font&gt;&lt;/span&gt;" style="rounded=0;whiteSpace=wrap;html=1;fillColor=#FF99FF;" vertex="1" parent="1">
          <mxGeometry x="310" y="545" width="120" height="70" as="geometry" />
        </mxCell>
        <mxCell id="YPgm55xfa66bHZHVbcCX-14" value="&lt;span&gt;&lt;font style=&quot;font-size: 14px&quot;&gt;Order a physical card&lt;/font&gt;&lt;/span&gt;" style="rounded=0;whiteSpace=wrap;html=1;fillColor=#FFFF99;" vertex="1" parent="1">
          <mxGeometry x="690" y="545" width="120" height="70" as="geometry" />
        </mxCell>
        <mxCell id="YPgm55xfa66bHZHVbcCX-15" value="" style="endArrow=classic;html=1;entryX=0;entryY=0.5;entryDx=0;entryDy=0;" edge="1" parent="1" target="YPgm55xfa66bHZHVbcCX-12">
          <mxGeometry width="50" height="50" relative="1" as="geometry">
            <mxPoint x="229.99999999999955" y="325" as="sourcePoint" />
            <mxPoint x="470" y="385" as="targetPoint" />
            <Array as="points">
              <mxPoint x="230" y="420" />
            </Array>
          </mxGeometry>
        </mxCell>
        <mxCell id="YPgm55xfa66bHZHVbcCX-16" value="" style="endArrow=classic;html=1;entryX=0;entryY=0.5;entryDx=0;entryDy=0;" edge="1" parent="1">
          <mxGeometry width="50" height="50" relative="1" as="geometry">
            <mxPoint x="229.99999999999955" y="405" as="sourcePoint" />
            <mxPoint x="309.99999999999955" y="500" as="targetPoint" />
            <Array as="points">
              <mxPoint x="230" y="500" />
            </Array>
          </mxGeometry>
        </mxCell>
        <mxCell id="YPgm55xfa66bHZHVbcCX-17" value="" style="endArrow=classic;html=1;entryX=0;entryY=0.5;entryDx=0;entryDy=0;" edge="1" parent="1">
          <mxGeometry width="50" height="50" relative="1" as="geometry">
            <mxPoint x="229.99999999999955" y="485" as="sourcePoint" />
            <mxPoint x="309.99999999999955" y="575" as="targetPoint" />
            <Array as="points">
              <mxPoint x="230" y="575" />
            </Array>
          </mxGeometry>
        </mxCell>
        <mxCell id="YPgm55xfa66bHZHVbcCX-18" value="" style="endArrow=classic;html=1;entryX=0;entryY=0.5;entryDx=0;entryDy=0;" edge="1" parent="1" source="YPgm55xfa66bHZHVbcCX-33">
          <mxGeometry width="50" height="50" relative="1" as="geometry">
            <mxPoint x="480" y="570" as="sourcePoint" />
            <mxPoint x="560" y="665" as="targetPoint" />
            <Array as="points">
              <mxPoint x="480" y="665" />
            </Array>
          </mxGeometry>
        </mxCell>
        <mxCell id="YPgm55xfa66bHZHVbcCX-19" value="&lt;span&gt;&lt;font style=&quot;font-size: 14px&quot;&gt;Share with a partner&lt;/font&gt;&lt;/span&gt;" style="rounded=0;whiteSpace=wrap;html=1;fillColor=#FFFF99;strokeColor=#000000;" vertex="1" parent="1">
          <mxGeometry x="690" y="630" width="120" height="70" as="geometry" />
        </mxCell>
        <mxCell id="YPgm55xfa66bHZHVbcCX-20" value="&lt;span style=&quot;font-size: 14px&quot;&gt;Track status of a service request&lt;/span&gt;" style="rounded=0;whiteSpace=wrap;html=1;fillColor=#FFFF99;" vertex="1" parent="1">
          <mxGeometry x="560" y="305" width="120" height="70" as="geometry" />
        </mxCell>
        <mxCell id="YPgm55xfa66bHZHVbcCX-21" value="&lt;span style=&quot;font-size: 14px&quot;&gt;Self update demographic (non-biometric) data&lt;/span&gt;" style="rounded=0;whiteSpace=wrap;html=1;fillColor=#FFFF99;strokeColor=#000000;" vertex="1" parent="1">
          <mxGeometry x="560" y="385" width="120" height="70" as="geometry" />
        </mxCell>
        <mxCell id="YPgm55xfa66bHZHVbcCX-22" value="&lt;span style=&quot;font-size: 14px&quot;&gt;Self update biometric data&lt;/span&gt;&lt;span&gt;&lt;font&gt;&lt;br&gt;&lt;/font&gt;&lt;/span&gt;" style="rounded=0;whiteSpace=wrap;html=1;fillColor=#FFFF99;" vertex="1" parent="1">
          <mxGeometry x="560" y="465" width="120" height="70" as="geometry" />
        </mxCell>
        <mxCell id="YPgm55xfa66bHZHVbcCX-23" value="" style="endArrow=classic;html=1;entryX=0;entryY=0.5;entryDx=0;entryDy=0;" edge="1" parent="1">
          <mxGeometry width="50" height="50" relative="1" as="geometry">
            <mxPoint x="480" y="325" as="sourcePoint" />
            <mxPoint x="560" y="420" as="targetPoint" />
            <Array as="points">
              <mxPoint x="480" y="420" />
            </Array>
          </mxGeometry>
        </mxCell>
        <mxCell id="YPgm55xfa66bHZHVbcCX-24" value="" style="endArrow=classic;html=1;entryX=0;entryY=0.5;entryDx=0;entryDy=0;" edge="1" parent="1">
          <mxGeometry width="50" height="50" relative="1" as="geometry">
            <mxPoint x="480" y="405" as="sourcePoint" />
            <mxPoint x="560" y="500" as="targetPoint" />
            <Array as="points">
              <mxPoint x="480" y="500" />
            </Array>
          </mxGeometry>
        </mxCell>
        <mxCell id="YPgm55xfa66bHZHVbcCX-25" value="&lt;span style=&quot;font-size: 14px&quot;&gt;Generate and manage VID&lt;/span&gt;" style="rounded=0;whiteSpace=wrap;html=1;fillColor=#FFFF99;" vertex="1" parent="1">
          <mxGeometry x="690" y="305" width="120" height="70" as="geometry" />
        </mxCell>
        <mxCell id="YPgm55xfa66bHZHVbcCX-26" value="&lt;span&gt;&lt;font style=&quot;font-size: 14px&quot;&gt;View history:&lt;br&gt;-ID consumption&lt;br&gt;-ID operations&lt;br&gt;&lt;/font&gt;&lt;/span&gt;" style="rounded=0;whiteSpace=wrap;html=1;fillColor=#FFFF99;" vertex="1" parent="1">
          <mxGeometry x="690" y="385" width="120" height="70" as="geometry" />
        </mxCell>
        <mxCell id="YPgm55xfa66bHZHVbcCX-27" value="" style="edgeStyle=orthogonalEdgeStyle;rounded=0;orthogonalLoop=1;jettySize=auto;html=1;exitX=1;exitY=0.5;exitDx=0;exitDy=0;entryX=1;entryY=0.5;entryDx=0;entryDy=0;" edge="1" parent="1" source="YPgm55xfa66bHZHVbcCX-6" target="YPgm55xfa66bHZHVbcCX-25">
          <mxGeometry relative="1" as="geometry">
            <mxPoint x="570" y="255" as="sourcePoint" />
            <mxPoint x="830" y="350" as="targetPoint" />
            <Array as="points">
              <mxPoint x="880" y="245" />
              <mxPoint x="880" y="340" />
            </Array>
          </mxGeometry>
        </mxCell>
        <mxCell id="YPgm55xfa66bHZHVbcCX-28" value="" style="endArrow=classic;html=1;" edge="1" parent="1">
          <mxGeometry width="50" height="50" relative="1" as="geometry">
            <mxPoint x="880" y="405" as="sourcePoint" />
            <mxPoint x="810" y="495" as="targetPoint" />
            <Array as="points">
              <mxPoint x="880" y="495" />
            </Array>
          </mxGeometry>
        </mxCell>
        <mxCell id="YPgm55xfa66bHZHVbcCX-29" value="&lt;b&gt;S&lt;/b&gt;" style="ellipse;whiteSpace=wrap;html=1;aspect=fixed;fillColor=#FF6666;" vertex="1" parent="1">
          <mxGeometry x="840" y="560" width="20" height="20" as="geometry" />
        </mxCell>
        <mxCell id="YPgm55xfa66bHZHVbcCX-31" value="" style="endArrow=classic;html=1;entryX=0;entryY=0.5;entryDx=0;entryDy=0;" edge="1" parent="1">
          <mxGeometry width="50" height="50" relative="1" as="geometry">
            <mxPoint x="480" y="570" as="sourcePoint" />
            <mxPoint x="560" y="665" as="targetPoint" />
            <Array as="points">
              <mxPoint x="480" y="665" />
            </Array>
          </mxGeometry>
        </mxCell>
        <mxCell id="YPgm55xfa66bHZHVbcCX-32" value="" style="endArrow=classic;html=1;entryX=1;entryY=0.5;entryDx=0;entryDy=0;" edge="1" parent="1" target="YPgm55xfa66bHZHVbcCX-26">
          <mxGeometry width="50" height="50" relative="1" as="geometry">
            <mxPoint x="880" y="335" as="sourcePoint" />
            <mxPoint x="819.6585492351883" y="422.13066247268534" as="targetPoint" />
            <Array as="points">
              <mxPoint x="880" y="420" />
            </Array>
          </mxGeometry>
        </mxCell>
        <mxCell id="YPgm55xfa66bHZHVbcCX-33" value="&lt;b&gt;S&lt;/b&gt;" style="ellipse;whiteSpace=wrap;html=1;aspect=fixed;fillColor=#FF6666;" vertex="1" parent="1">
          <mxGeometry x="510" y="655" width="20" height="20" as="geometry" />
        </mxCell>
        <mxCell id="YPgm55xfa66bHZHVbcCX-34" value="&lt;span&gt;&lt;font style=&quot;font-size: 18px&quot;&gt;&lt;b&gt;Book apointment&lt;/b&gt;&lt;/font&gt;&lt;/span&gt;" style="rounded=0;whiteSpace=wrap;html=1;fillColor=#9933FF;" vertex="1" parent="1">
          <mxGeometry x="905" y="215" width="125" height="70" as="geometry" />
        </mxCell>
        <mxCell id="YPgm55xfa66bHZHVbcCX-35" value="&lt;span style=&quot;font-size: 14px&quot;&gt;Booking for retrieving lost UIN&lt;/span&gt;" style="rounded=0;whiteSpace=wrap;html=1;fillColor=#E5CCFF;" vertex="1" parent="1">
          <mxGeometry x="905" y="375" width="130" height="70" as="geometry" />
        </mxCell>
        <mxCell id="YPgm55xfa66bHZHVbcCX-36" value="&lt;span&gt;&lt;font style=&quot;font-size: 14px&quot;&gt;Book an appointment for other purpose&lt;/font&gt;&lt;/span&gt;" style="rounded=0;whiteSpace=wrap;html=1;fillColor=#E5CCFF;" vertex="1" parent="1">
          <mxGeometry x="905" y="455" width="130" height="70" as="geometry" />
        </mxCell>
        <mxCell id="YPgm55xfa66bHZHVbcCX-37" value="&lt;span style=&quot;font-size: 14px&quot;&gt;Booking for pre-registration&lt;/span&gt;" style="rounded=0;whiteSpace=wrap;html=1;fillColor=#E5CCFF;" vertex="1" parent="1">
          <mxGeometry x="905" y="295" width="130" height="70" as="geometry" />
        </mxCell>
        <mxCell id="YPgm55xfa66bHZHVbcCX-38" value="" style="endArrow=classic;html=1;" edge="1" parent="1">
          <mxGeometry width="50" height="50" relative="1" as="geometry">
            <mxPoint x="1095" y="245" as="sourcePoint" />
            <mxPoint x="1035" y="335" as="targetPoint" />
            <Array as="points">
              <mxPoint x="1095" y="335" />
            </Array>
          </mxGeometry>
        </mxCell>
        <mxCell id="YPgm55xfa66bHZHVbcCX-39" value="" style="endArrow=classic;html=1;entryX=1;entryY=0.5;entryDx=0;entryDy=0;" edge="1" parent="1" target="YPgm55xfa66bHZHVbcCX-35">
          <mxGeometry width="50" height="50" relative="1" as="geometry">
            <mxPoint x="1095.0000000000005" y="315" as="sourcePoint" />
            <mxPoint x="1025" y="405" as="targetPoint" />
            <Array as="points">
              <mxPoint x="1095" y="410" />
            </Array>
          </mxGeometry>
        </mxCell>
        <mxCell id="YPgm55xfa66bHZHVbcCX-40" value="" style="endArrow=classic;html=1;" edge="1" parent="1">
          <mxGeometry width="50" height="50" relative="1" as="geometry">
            <mxPoint x="1095.0000000000005" y="385" as="sourcePoint" />
            <mxPoint x="1035" y="490" as="targetPoint" />
            <Array as="points">
              <mxPoint x="1095" y="490" />
            </Array>
          </mxGeometry>
        </mxCell>
        <mxCell id="YPgm55xfa66bHZHVbcCX-41" value="" style="endArrow=none;html=1;" edge="1" parent="1">
          <mxGeometry width="50" height="50" relative="1" as="geometry">
            <mxPoint x="1030" y="245" as="sourcePoint" />
            <mxPoint x="1095" y="245" as="targetPoint" />
          </mxGeometry>
        </mxCell>
        <mxCell id="YPgm55xfa66bHZHVbcCX-42" value="&lt;span style=&quot;font-size: 18px&quot;&gt;&lt;b&gt;Verify mobile number/email ID&lt;/b&gt;&lt;/span&gt;" style="rounded=0;whiteSpace=wrap;html=1;fillColor=#EA6B66;" vertex="1" parent="1">
          <mxGeometry x="1140" y="215" width="120" height="70" as="geometry" />
        </mxCell>
        <mxCell id="YPgm55xfa66bHZHVbcCX-43" value="" style="endArrow=classic;html=1;entryX=0.5;entryY=0;entryDx=0;entryDy=0;" edge="1" parent="1">
          <mxGeometry width="50" height="50" relative="1" as="geometry">
            <mxPoint x="1199.7900000000013" y="155" as="sourcePoint" />
            <mxPoint x="1199.29" y="215" as="targetPoint" />
          </mxGeometry>
        </mxCell>
        <mxCell id="YPgm55xfa66bHZHVbcCX-44" value="&lt;span style=&quot;font-size: 18px&quot;&gt;&lt;b&gt;Get UIN&lt;/b&gt;&lt;/span&gt;" style="rounded=0;whiteSpace=wrap;html=1;fillColor=#97D077;" vertex="1" parent="1">
          <mxGeometry x="1320" y="215" width="120" height="70" as="geometry" />
        </mxCell>
        <mxCell id="YPgm55xfa66bHZHVbcCX-45" value="" style="endArrow=classic;html=1;entryX=0.547;entryY=-0.005;entryDx=0;entryDy=0;entryPerimeter=0;" edge="1" parent="1" target="YPgm55xfa66bHZHVbcCX-44">
          <mxGeometry width="50" height="50" relative="1" as="geometry">
            <mxPoint x="1385" y="155" as="sourcePoint" />
            <mxPoint x="1389.29" y="215" as="targetPoint" />
          </mxGeometry>
        </mxCell>
        <mxCell id="YPgm55xfa66bHZHVbcCX-46" value="" style="edgeStyle=orthogonalEdgeStyle;rounded=0;orthogonalLoop=1;jettySize=auto;html=1;entryX=0;entryY=0.5;entryDx=0;entryDy=0;" edge="1" parent="1" target="YPgm55xfa66bHZHVbcCX-20">
          <mxGeometry relative="1" as="geometry">
            <mxPoint x="620" y="330" as="targetPoint" />
            <Array as="points">
              <mxPoint x="480" y="235" />
              <mxPoint x="480" y="340" />
            </Array>
            <mxPoint x="620" y="235" as="sourcePoint" />
          </mxGeometry>
        </mxCell>
        <mxCell id="YPgm55xfa66bHZHVbcCX-47" value="&lt;b&gt;S&lt;/b&gt;" style="ellipse;whiteSpace=wrap;html=1;aspect=fixed;fillColor=#FF6666;" vertex="1" parent="1">
          <mxGeometry x="510" y="560" width="20" height="20" as="geometry" />
        </mxCell>
        <mxCell id="YPgm55xfa66bHZHVbcCX-48" value="&lt;span style=&quot;font-size: 14px&quot;&gt;View/download credential that was requested before&lt;/span&gt;" style="rounded=0;whiteSpace=wrap;html=1;fillColor=#FFFF99;" vertex="1" parent="1">
          <mxGeometry x="690" y="465" width="120" height="70" as="geometry" />
        </mxCell>
        <mxCell id="YPgm55xfa66bHZHVbcCX-49" value="&lt;span style=&quot;font-size: 14px&quot;&gt;Lock/unlock authentication type&lt;/span&gt;" style="rounded=0;whiteSpace=wrap;html=1;fillColor=#FFFF99;" vertex="1" parent="1">
          <mxGeometry x="560" y="545" width="120" height="70" as="geometry" />
        </mxCell>
        <mxCell id="YPgm55xfa66bHZHVbcCX-50" value="&lt;font style=&quot;font-size: 14px&quot;&gt;AID/UIN/VID + full name + DOB +OTP&lt;/font&gt;" style="text;html=1;strokeColor=none;fillColor=none;align=center;verticalAlign=middle;whiteSpace=wrap;rounded=0;" vertex="1" parent="1">
          <mxGeometry x="1320" y="115" width="140" height="20" as="geometry" />
        </mxCell>
        <mxCell id="YPgm55xfa66bHZHVbcCX-51" value="&lt;font style=&quot;font-size: 14px&quot;&gt;UIN/VID + OTP&lt;/font&gt;" style="text;html=1;strokeColor=none;fillColor=none;align=center;verticalAlign=middle;whiteSpace=wrap;rounded=0;" vertex="1" parent="1">
          <mxGeometry x="620" y="130" width="140" height="20" as="geometry" />
        </mxCell>
        <mxCell id="YPgm55xfa66bHZHVbcCX-52" value="&lt;font style=&quot;font-size: 14px&quot;&gt;UIN/VID +OTP&lt;/font&gt;" style="text;html=1;strokeColor=none;fillColor=none;align=center;verticalAlign=middle;whiteSpace=wrap;rounded=0;" vertex="1" parent="1">
          <mxGeometry x="1155" y="125" width="125" height="20" as="geometry" />
        </mxCell>
        <mxCell id="YPgm55xfa66bHZHVbcCX-53" value="" style="endArrow=classic;html=1;entryX=0.5;entryY=0;entryDx=0;entryDy=0;" edge="1" parent="1" target="YPgm55xfa66bHZHVbcCX-34">
          <mxGeometry width="50" height="50" relative="1" as="geometry">
            <mxPoint x="968" y="155" as="sourcePoint" />
            <mxPoint x="935" y="415" as="targetPoint" />
          </mxGeometry>
        </mxCell>
        <mxCell id="YPgm55xfa66bHZHVbcCX-54" value="&lt;!--StartFragment--&gt;&lt;span style=&quot;font-family: Helvetica; font-size: 14px; font-style: normal; font-variant-ligatures: normal; font-variant-caps: normal; font-weight: 400; letter-spacing: normal; orphans: 2; text-align: center; text-indent: 0px; text-transform: none; widows: 2; word-spacing: 0px; -webkit-text-stroke-width: 0px; background-color: rgb(248, 249, 250); text-decoration-style: initial; text-decoration-color: initial; float: none; display: inline !important;&quot;&gt;Email/phone +OTP&lt;/span&gt;&lt;!--EndFragment--&gt;" style="text;whiteSpace=wrap;html=1;" vertex="1" parent="1">
          <mxGeometry x="900" y="125" width="140" height="30" as="geometry" />
        </mxCell>
        <mxCell id="YPgm55xfa66bHZHVbcCX-55" value="&lt;font style=&quot;font-size: 14px&quot;&gt;Open to all&lt;/font&gt;" style="text;html=1;strokeColor=none;fillColor=none;align=center;verticalAlign=middle;whiteSpace=wrap;rounded=0;" vertex="1" parent="1">
          <mxGeometry x="350" y="130" width="110" height="20" as="geometry" />
        </mxCell>
        <mxCell id="YPgm55xfa66bHZHVbcCX-56" value="" style="endArrow=classic;html=1;entryX=0;entryY=0.5;entryDx=0;entryDy=0;" edge="1" parent="1">
          <mxGeometry width="50" height="50" relative="1" as="geometry">
            <mxPoint x="480" y="485" as="sourcePoint" />
            <mxPoint x="560" y="580" as="targetPoint" />
            <Array as="points">
              <mxPoint x="480" y="580" />
            </Array>
          </mxGeometry>
        </mxCell>
        <mxCell id="YPgm55xfa66bHZHVbcCX-57" value="" style="endArrow=classic;html=1;entryX=1;entryY=0.5;entryDx=0;entryDy=0;" edge="1" parent="1" target="YPgm55xfa66bHZHVbcCX-14">
          <mxGeometry width="50" height="50" relative="1" as="geometry">
            <mxPoint x="880" y="490" as="sourcePoint" />
            <mxPoint x="960" y="585" as="targetPoint" />
            <Array as="points">
              <mxPoint x="880" y="580" />
            </Array>
          </mxGeometry>
        </mxCell>
        <mxCell id="YPgm55xfa66bHZHVbcCX-67" value="" style="endArrow=classic;html=1;entryX=1;entryY=0.5;entryDx=0;entryDy=0;" edge="1" parent="1">
          <mxGeometry width="50" height="50" relative="1" as="geometry">
            <mxPoint x="880" y="560" as="sourcePoint" />
            <mxPoint x="810" y="670" as="targetPoint" />
            <Array as="points">
              <mxPoint x="880" y="670" />
            </Array>
          </mxGeometry>
        </mxCell>
        <mxCell id="YPgm55xfa66bHZHVbcCX-68" value="" style="endArrow=classic;html=1;" edge="1" parent="1">
          <mxGeometry width="50" height="50" relative="1" as="geometry">
            <mxPoint x="1095.0000000000005" y="470" as="sourcePoint" />
            <mxPoint x="1035" y="575" as="targetPoint" />
            <Array as="points">
              <mxPoint x="1095" y="575" />
            </Array>
          </mxGeometry>
        </mxCell>
        <mxCell id="YPgm55xfa66bHZHVbcCX-69" value="&lt;span style=&quot;font-size: 14px&quot;&gt;Book appointment to update UIN&lt;/span&gt;" style="rounded=0;whiteSpace=wrap;html=1;fillColor=#E5CCFF;" vertex="1" parent="1">
          <mxGeometry x="905" y="540" width="130" height="70" as="geometry" />
        </mxCell>
        <mxCell id="YPgm55xfa66bHZHVbcCX-70" value="&lt;span style=&quot;font-size: 14px&quot;&gt;Book an appointment for other purpose&lt;/span&gt;" style="rounded=0;whiteSpace=wrap;html=1;fillColor=#FFFF99;" vertex="1" parent="1">
          <mxGeometry x="690" y="720" width="120" height="70" as="geometry" />
        </mxCell>
        <mxCell id="YPgm55xfa66bHZHVbcCX-71" value="&lt;span style=&quot;font-size: 14px&quot;&gt;Book appointment to update UIN&lt;/span&gt;" style="rounded=0;whiteSpace=wrap;html=1;fillColor=#FFFF99;" vertex="1" parent="1">
          <mxGeometry x="560" y="720" width="120" height="70" as="geometry" />
        </mxCell>
        <mxCell id="YPgm55xfa66bHZHVbcCX-72" value="" style="endArrow=classic;html=1;entryX=0;entryY=0.5;entryDx=0;entryDy=0;" edge="1" parent="1">
          <mxGeometry width="50" height="50" relative="1" as="geometry">
            <mxPoint x="480" y="660" as="sourcePoint" />
            <mxPoint x="560" y="755" as="targetPoint" />
            <Array as="points">
              <mxPoint x="480" y="755" />
            </Array>
          </mxGeometry>
        </mxCell>
        <mxCell id="YPgm55xfa66bHZHVbcCX-73" value="" style="endArrow=classic;html=1;entryX=1;entryY=0.5;entryDx=0;entryDy=0;" edge="1" parent="1">
          <mxGeometry width="50" height="50" relative="1" as="geometry">
            <mxPoint x="880" y="640" as="sourcePoint" />
            <mxPoint x="810" y="750" as="targetPoint" />
            <Array as="points">
              <mxPoint x="880" y="750" />
            </Array>
          </mxGeometry>
        </mxCell>
      </root>
    </mxGraphModel>
  </diagram>
</mxfile>
